<svg width="164" height="164" viewBox="0 0 164 164" fill="none" xmlns="http://www.w3.org/2000/svg">
  <defs>
    <linearGradient id="popInk" x1="27" y1="24" x2="130" y2="137" gradientUnits="userSpaceOnUse">
      <stop stop-color="#111011"/>
      <stop offset="0.58" stop-color="#1B1819"/>
      <stop offset="1" stop-color="#2A2828"/>
    </linearGradient>
  </defs>
  <path d="M34.8 121.7V91.8C34.8 53.5 65.5 22.8 103.8 22.8C116.1 22.8 127.4 25.9 137.2 31.2C116.9 20.3 91.4 23.4 73.7 40.2L34.8 76.5V45.8C34.8 33.3 24.7 23.1 12.2 23.1H11V121.7H34.8Z" fill="url(#popInk)"/>
  <path d="M56.9 139H93L133.7 100.8L118.1 84.4L56.9 139Z" fill="url(#popInk)"/>
  <path d="M103.2 32.8C88.1 32.8 73.6 38.7 63 49.1L43.5 68.3C28.8 82.7 28.6 106.4 43.1 120.9C57.5 135.5 81.2 135.6 95.7 121.3L115.2 102.1C125.8 91.7 131.7 77.3 131.7 62.3C131.7 46 119.5 32.8 103.2 32.8ZM106.4 90.9L86.9 110.1C79.5 117.3 67.5 117.2 60.3 109.9C53.1 102.5 53.2 90.5 60.5 83.3L80 64.1C87.4 56.9 99.4 57 106.6 64.3C113.8 71.7 113.7 83.7 106.4 90.9Z" fill="url(#popInk)"/>
</svg>
